<svg width="41" height="40" viewBox="0 0 41 40" fill="none" xmlns="http://www.w3.org/2000/svg">
<circle cx="20.5" cy="20" r="20" fill="#11253E"/>
<path d="M16.0379 14.3247C16.0379 14.8545 16.0225 15.3532 15.9916 15.8208C15.9761 16.2727 15.953 16.6312 15.9221 16.8961H16.0379C16.393 16.3662 16.8793 15.9221 17.4968 15.5636C18.1144 15.2052 18.9095 15.026 19.8821 15.026C21.426 15.026 22.6611 15.5714 23.5874 16.6623C24.5291 17.7377 25 19.3506 25 21.5013C25 22.9351 24.7839 24.1351 24.3516 25.1013C23.9347 26.0675 23.3404 26.7922 22.5684 27.2753C21.7965 27.7584 20.9011 28 19.8821 28C18.9095 28 18.1144 27.8208 17.4968 27.4623C16.8793 27.1039 16.393 26.6753 16.0379 26.1766H15.8758L15.4589 27.7662H14V10H16.0379V14.3247ZM19.5347 16.7325C18.6547 16.7325 17.96 16.9039 17.4505 17.2468C16.9411 17.574 16.5782 18.0883 16.3621 18.7896C16.146 19.4753 16.0379 20.3558 16.0379 21.4312V21.5247C16.0379 23.0675 16.2849 24.2519 16.7789 25.0779C17.2884 25.8883 18.2225 26.2935 19.5811 26.2935C20.6926 26.2935 21.5186 25.8805 22.0589 25.0545C22.6147 24.2286 22.8926 23.0364 22.8926 21.4779C22.8926 19.9039 22.6147 18.7195 22.0589 17.9247C21.5186 17.1299 20.6772 16.7325 19.5347 16.7325Z" fill="white"/>
<circle cx="28.5" cy="26.5" r="1.5" fill="white"/>
</svg>
