<svg width="412" height="313" viewBox="0 0 412 313" fill="none" xmlns="http://www.w3.org/2000/svg">
<g clip-path="url(#clip0_429_30143)">
<g opacity="0.1">
<path d="M102.3 303.31C97.8801 299.17 97.6401 292.23 101.78 287.81L283.95 93.01C288.09 88.59 295.03 88.35 299.45 92.49C303.87 96.63 304.11 103.57 299.97 107.99L117.8 302.79C113.66 307.21 106.72 307.45 102.3 303.31Z" fill="white"/>
<path d="M115.41 213.82C111 209.67 110.8 202.73 114.95 198.32L297.84 4.19011C301.99 -0.219886 308.93 -0.429886 313.34 3.73011C317.75 7.88011 317.95 14.8201 313.8 19.2301L130.91 213.36C126.76 217.77 119.82 217.97 115.41 213.82Z" fill="white"/>
<path d="M306.24 84.5002C301.83 80.3502 301.63 73.4102 305.78 69.0002L315.03 59.2402C319.18 54.8302 326.12 54.6302 330.53 58.7802C334.94 62.9302 335.14 69.8702 330.99 74.2802L321.74 84.0402C317.59 88.4502 310.65 88.6502 306.24 84.5002Z" fill="white"/>
<path d="M27.77 233.62C23.35 229.48 23.11 222.54 27.25 218.12L209.42 23.3201C213.56 18.9001 220.5 18.6601 224.92 22.8001C229.34 26.9401 229.58 33.8801 225.44 38.3001L43.27 233.1C39.13 237.52 32.19 237.76 27.77 233.62Z" fill="white"/>
<path d="M189.68 283.79C185.27 279.64 185.07 272.7 189.22 268.29L372.11 74.1601C376.26 69.7501 383.2 69.5501 387.61 73.7001C392.02 77.8501 392.22 84.7901 388.07 89.2001L205.18 283.33C201.03 287.74 194.09 287.94 189.68 283.79Z" fill="white"/>
</g>
<path d="M196.33 25.46H61.09C55.2524 25.46 50.52 30.1923 50.52 36.03V288.55C50.52 294.388 55.2524 299.12 61.09 299.12H196.33C202.168 299.12 206.9 294.388 206.9 288.55V36.03C206.9 30.1923 202.168 25.46 196.33 25.46Z" fill="#2E2E54"/>
<path d="M194.89 35.0601H62.15C59.5763 35.0601 57.49 37.1464 57.49 39.7201V273.77C57.49 276.344 59.5763 278.43 62.15 278.43H194.89C197.464 278.43 199.55 276.344 199.55 273.77V39.7201C199.55 37.1464 197.464 35.0601 194.89 35.0601Z" fill="white"/>
<path d="M142.08 30.37H115.34C114.83 30.37 114.41 29.95 114.41 29.44C114.41 28.93 114.83 28.51 115.34 28.51H142.08C142.59 28.51 143.01 28.93 143.01 29.44C143.01 29.95 142.59 30.37 142.08 30.37Z" fill="#0D0D26"/>
<path d="M135.81 291.51H121.59C119.35 291.51 117.53 289.69 117.53 287.45C117.53 285.21 119.35 283.39 121.59 283.39H135.81C138.05 283.39 139.87 285.21 139.87 287.45C139.87 289.69 138.05 291.51 135.81 291.51Z" fill="#0D0D26"/>
<g opacity="0.5">
<path d="M87.58 41.68H66.75C66.5 41.68 66.3 41.48 66.3 41.23C66.3 40.98 66.5 40.78 66.75 40.78H87.58C87.83 40.78 88.03 40.98 88.03 41.23C88.03 41.48 87.83 41.68 87.58 41.68Z" fill="#37383A"/>
</g>
<g opacity="0.5">
<path d="M167.58 43.24L164.86 40.05C164.51 39.63 164.8 39 165.35 39H170.91C171.46 39 171.75 39.65 171.39 40.06L168.55 43.25C168.29 43.54 167.84 43.54 167.59 43.24H167.58Z" fill="#37383A"/>
</g>
<g opacity="0.5">
<path d="M182.03 38.6499H180.07V43.8099H182.03V38.6499Z" fill="#37383A"/>
</g>
<g opacity="0.5">
<path d="M184.91 38.6499H182.95V43.8099H184.91V38.6499Z" fill="#37383A"/>
</g>
<g opacity="0.5">
<path d="M187.79 38.6499H185.83V43.8099H187.79V38.6499Z" fill="#37383A"/>
</g>
<g opacity="0.5">
<path d="M190.67 38.6499H188.71V43.8099H190.67V38.6499Z" fill="#37383A"/>
</g>
<path d="M99.52 194.51H70.13V267.08H99.52V194.51Z" fill="#8686F2"/>
<path d="M143.4 141.56H114.01V267.09H143.4V141.56Z" fill="#8686F2"/>
<path d="M187.28 76.8301H157.89V267.08H187.28V76.8301Z" fill="#8686F2"/>
<path d="M1.25 127.24C0.930002 127.24 0.610002 127.12 0.370002 126.87C-0.119998 126.38 -0.119998 125.59 0.370002 125.1L125.18 0.369941C125.67 -0.120059 126.46 -0.120059 126.95 0.369941C127.44 0.859941 127.44 1.64994 126.95 2.13994L2.13 126.87C1.89 127.11 1.57 127.24 1.25 127.24Z" fill="#673C78"/>
<path d="M390.84 197.04H143.73V299.05H390.84V197.04Z" fill="#EFF3F4"/>
<path d="M204.41 247.63C204.41 266.98 198 284.83 187.19 299.18H223.33C233.89 284.92 240.14 267.28 240.14 248.18C240.14 229.08 233.89 211.43 223.33 197.18H188C198.32 211.34 204.41 228.78 204.41 247.64V247.63Z" fill="#D6AED2"/>
<path d="M390.84 197.04H367.11V299.05H390.84V197.04Z" fill="#D6AED2"/>
<path d="M390.97 221.04L366.97 197.04H390.97V221.04Z" fill="#A875A2"/>
<path d="M366.97 299.05L390.97 275.05V299.05H366.97Z" fill="#A875A2"/>
<path d="M143.59 275.05L167.59 299.05H143.59V275.05Z" fill="#A875A2"/>
<path d="M167.59 197.04L143.59 221.04V197.04H167.59Z" fill="#A875A2"/>
<path d="M154.23 221.32V275.05C169 274.98 180.96 262.98 180.96 248.19C180.96 233.4 169.01 221.4 154.23 221.33V221.32Z" fill="#A875A2"/>
<path d="M335.6 197.52H329.05V299.26H335.6V197.52Z" fill="#D6AED2"/>
<path d="M332.32 291.68C326.3 291.68 321.41 286.79 321.41 280.77C321.41 274.75 326.3 269.86 332.32 269.86C338.34 269.86 343.23 274.75 343.23 280.77C343.23 286.79 338.34 291.68 332.32 291.68ZM332.32 272.04C327.51 272.04 323.59 275.96 323.59 280.77C323.59 285.58 327.51 289.5 332.32 289.5C337.13 289.5 341.05 285.58 341.05 280.77C341.05 275.96 337.13 272.04 332.32 272.04Z" fill="#673C78"/>
<path d="M289.421 285.753C310.219 273.551 317.187 246.8 304.985 226.002C292.783 205.205 266.032 198.236 245.234 210.438C224.437 222.64 217.468 249.392 229.67 270.189C241.872 290.987 268.623 297.955 289.421 285.753Z" fill="#EFF3F4"/>
<path d="M267.33 292.94C242.59 292.94 222.46 272.82 222.45 248.08C222.45 223.34 242.57 203.2 267.31 203.19H267.33C279.31 203.19 290.57 207.85 299.05 216.32C307.53 224.79 312.2 236.06 312.21 248.05C312.21 272.79 292.09 292.93 267.35 292.94H267.34H267.33ZM267.33 205.61H267.31C243.9 205.61 224.87 224.67 224.88 248.08C224.88 271.48 243.93 290.51 267.33 290.51H267.34C290.75 290.51 309.78 271.45 309.77 248.04C309.77 236.7 305.35 226.04 297.33 218.03C289.31 210.02 278.66 205.61 267.33 205.61Z" fill="#673C78"/>
<path d="M374.2 283.22C376.834 283.22 378.97 281.084 378.97 278.45C378.97 275.816 376.834 273.68 374.2 273.68C371.566 273.68 369.43 275.816 369.43 278.45C369.43 281.084 371.566 283.22 374.2 283.22Z" fill="#865268"/>
<path d="M378.97 264.82C378.97 267.46 376.83 269.59 374.2 269.59C371.57 269.59 369.43 267.45 369.43 264.82C369.43 262.19 371.57 260.05 374.2 260.05C376.83 260.05 378.97 262.19 378.97 264.82Z" fill="#865268"/>
<g opacity="0.4">
<path d="M143.65 197H128.82V299.33H143.65V197Z" fill="#232121"/>
</g>
<path d="M395.49 300.9H25.81C25.4 300.9 25.06 300.56 25.06 300.15C25.06 299.74 25.4 299.4 25.81 299.4H395.5C395.91 299.4 396.25 299.74 396.25 300.15C396.25 300.56 395.91 300.9 395.5 300.9H395.49Z" fill="white"/>
<path d="M359.15 312.81H318.85C318.44 312.81 318.1 312.47 318.1 312.06C318.1 311.65 318.44 311.31 318.85 311.31H359.15C359.56 311.31 359.9 311.65 359.9 312.06C359.9 312.47 359.56 312.81 359.15 312.81Z" fill="white"/>
<path d="M302.59 312.81H139.4C138.99 312.81 138.65 312.47 138.65 312.06C138.65 311.65 138.99 311.31 139.4 311.31H302.59C303 311.31 303.34 311.65 303.34 312.06C303.34 312.47 303 312.81 302.59 312.81Z" fill="white"/>
<path d="M107.35 312.81H62.14C61.73 312.81 61.39 312.47 61.39 312.06C61.39 311.65 61.73 311.31 62.14 311.31H107.35C107.76 311.31 108.1 311.65 108.1 312.06C108.1 312.47 107.76 312.81 107.35 312.81Z" fill="white"/>
<path d="M351.778 206.272C368.637 189.413 368.637 162.079 351.778 145.22C334.919 128.361 307.585 128.361 290.726 145.22C273.867 162.079 273.867 189.413 290.726 206.272C307.585 223.131 334.919 223.131 351.778 206.272Z" fill="#FBC000"/>
<path d="M321.25 212.84C300.8 212.84 284.17 196.21 284.17 175.76C284.17 155.31 300.8 138.68 321.25 138.68C341.7 138.68 358.33 155.32 358.33 175.76C358.33 196.2 341.7 212.84 321.25 212.84ZM321.25 144.34C303.93 144.34 289.83 158.43 289.83 175.76C289.83 193.09 303.92 207.18 321.25 207.18C338.58 207.18 352.67 193.09 352.67 175.76C352.67 158.43 338.58 144.34 321.25 144.34Z" fill="#FFDF67"/>
<path d="M266.466 51.3361C275.694 42.108 275.694 27.1463 266.466 17.9183C257.238 8.69017 242.276 8.69017 233.048 17.9183C223.82 27.1463 223.82 42.108 233.048 51.3361C242.276 60.5642 257.238 60.5642 266.466 51.3361Z" fill="#FBC000"/>
<path d="M249.75 54.9201C238.56 54.9201 229.45 45.8201 229.45 34.6201C229.45 23.4201 238.56 14.3201 249.75 14.3201C260.94 14.3201 270.05 23.4201 270.05 34.6201C270.05 45.8201 260.94 54.9201 249.75 54.9201ZM249.75 17.4301C240.27 17.4301 232.55 25.1401 232.55 34.6301C232.55 44.1201 240.26 51.8201 249.75 51.8201C259.24 51.8201 266.95 44.1101 266.95 34.6301C266.95 25.1501 259.24 17.4301 249.75 17.4301Z" fill="#FFDF67"/>
<path d="M378.98 137.59C396.874 137.59 411.38 123.084 411.38 105.19C411.38 87.296 396.874 72.79 378.98 72.79C361.086 72.79 346.58 87.296 346.58 105.19C346.58 123.084 361.086 137.59 378.98 137.59Z" fill="#FBC000"/>
<path d="M378.98 133.02C363.63 133.02 351.15 120.53 351.15 105.19C351.15 89.8501 363.63 77.3601 378.98 77.3601C394.33 77.3601 406.81 89.8401 406.81 105.19C406.81 120.54 394.33 133.02 378.98 133.02ZM378.98 81.6101C365.98 81.6101 355.4 92.1901 355.4 105.19C355.4 118.19 365.98 128.77 378.98 128.77C391.98 128.77 402.56 118.19 402.56 105.19C402.56 92.1901 391.98 81.6101 378.98 81.6101Z" fill="#FFDF67"/>
<path d="M122.58 191.74C122.26 191.74 121.94 191.62 121.7 191.37C121.21 190.88 121.21 190.09 121.7 189.6L220.13 91.17C220.62 90.68 221.41 90.68 221.9 91.17C222.39 91.66 222.39 92.45 221.9 92.94L123.47 191.37C123.23 191.61 122.91 191.74 122.59 191.74H122.58Z" fill="#673C78"/>
<path d="M281.07 92.5L221.85 92.48C221.16 92.48 220.6 91.92 220.6 91.23C220.6 90.54 221.16 89.98 221.85 89.98L281.07 90C281.76 90 282.32 90.56 282.32 91.25C282.32 91.94 281.76 92.5 281.07 92.5Z" fill="#673C78"/>
<path d="M280.99 92.4799C280.67 92.4799 280.35 92.3599 280.11 92.1099C279.62 91.6199 279.62 90.8299 280.11 90.3399L333.88 36.5699C334.37 36.0799 335.16 36.0799 335.65 36.5699C336.14 37.0599 336.14 37.8499 335.65 38.3399L281.88 92.1099C281.64 92.3499 281.32 92.4799 281 92.4799H280.99Z" fill="#673C78"/>
<path d="M346.72 26.75H310.46C309.77 26.75 309.21 26.19 309.21 25.5C309.21 24.81 309.77 24.25 310.46 24.25H346.72C347.41 24.25 347.97 24.81 347.97 25.5C347.97 26.19 347.41 26.75 346.72 26.75Z" fill="#673C78"/>
<path d="M346.72 63.01C346.03 63.01 345.47 62.45 345.47 61.76V25.5C345.47 24.81 346.03 24.25 346.72 24.25C347.41 24.25 347.97 24.81 347.97 25.5V61.76C347.97 62.45 347.41 63.01 346.72 63.01Z" fill="#673C78"/>
<path d="M222.7 155.57C214.43 149.9 198.39 136.71 197.71 136.15L203.22 129.46C203.38 129.59 219.65 142.97 227.6 148.42L222.7 155.57Z" fill="#161535"/>
<path d="M204.9 277.42H197.78V291.33H204.9V277.42Z" fill="#8686F2"/>
<g opacity="0.25">
<path d="M204.9 272.57H197.78V286.48H204.9V272.57Z" fill="black"/>
</g>
<path d="M207.16 180.84H195.51V284.86H207.16V180.84Z" fill="#0D0D26"/>
<path d="M221.39 299.17C221.34 297.43 220.59 292.35 216.49 292.35L209.68 292.26L208.24 287.9C207.95 287.02 207.28 286.45 206.53 286.44L205.43 286.42C205.16 286.42 205.06 286.56 205.04 286.83C204.87 289.11 204.63 290.21 203.27 290.19L197.66 290.13C195.38 290.13 195.52 291.32 195.5 292.82C195.5 292.82 195.44 297.94 195.45 299.16H221.38L221.39 299.17Z" fill="#0D0D26"/>
<path d="M182.5 97.49H196.04C203.79 97.49 210.08 103.78 210.08 111.53V163.1C210.08 163.8 209.51 164.37 208.81 164.37H169.94C169.24 164.37 168.67 163.8 168.67 163.1V111.31C168.67 103.68 174.86 97.49 182.49 97.49H182.5Z" fill="#F3E8E8"/>
<path d="M199.67 144.83H185.34V168H199.67V144.83Z" fill="#0D0D26"/>
<path d="M168.68 184.6H204.79C207.71 184.6 210.08 182.23 210.08 179.31V167.04H168.67V184.61L168.68 184.6Z" fill="#161535"/>
<path d="M210.1 165.66H168.67V171.37H210.1V165.66Z" fill="#0D0D26"/>
<path d="M191.22 172H198.72C199.631 172 200.37 171.261 200.37 170.35V166.77C200.37 165.859 199.631 165.12 198.72 165.12H191.22C190.309 165.12 189.57 165.859 189.57 166.77V170.35C189.57 171.261 190.309 172 191.22 172Z" fill="#EFF4DF"/>
<path d="M196.86 165.12H198.71C199.06 165.12 199.38 165.23 199.65 165.41L193.07 172H191.22C190.87 172 190.55 171.89 190.28 171.71L196.87 165.12H196.86Z" fill="#CBD1C9"/>
<path d="M191.07 83.9399H190.42C187.819 83.9399 185.71 86.0487 185.71 88.6499V96.3899C185.71 98.9912 187.819 101.1 190.42 101.1H191.07C193.671 101.1 195.78 98.9912 195.78 96.3899V88.6499C195.78 86.0487 193.671 83.9399 191.07 83.9399Z" fill="#F1797A"/>
<path d="M178.05 277.42H170.93V291.33H178.05V277.42Z" fill="#8686F2"/>
<g opacity="0.25">
<path d="M178.05 272.57H170.93V286.48H178.05V272.57Z" fill="black"/>
</g>
<path d="M180.31 180.84H168.66V284.86H180.31V180.84Z" fill="#161535"/>
<path d="M194.65 299.17C194.6 297.43 193.85 292.35 189.75 292.35L182.94 292.26L181.5 287.9C181.21 287.02 180.54 286.45 179.79 286.44L178.69 286.42C178.42 286.42 178.32 286.56 178.3 286.83C178.13 289.11 177.89 290.21 176.53 290.19L170.92 290.13C168.64 290.13 168.78 291.32 168.76 292.82C168.76 292.82 168.7 297.94 168.71 299.16H194.64L194.65 299.17Z" fill="#161535"/>
<path d="M195.75 106L191.87 105.98L191 140.83H197L195.75 106Z" fill="#673C78"/>
<path d="M189.9 100.17L191.85 106.11L195.76 106.13L197.74 100.21L189.9 100.17Z" fill="#533163"/>
<path d="M198.67 142.83L182.1 97.4199C165.67 97.4199 166.83 103.5 166.83 110.99V167.99H193.5L198.67 142.82V142.83Z" fill="#1C1C49"/>
<path d="M198.24 97.6101C211.84 97.6101 210.17 104.1 210.17 111V168H196.67C196.67 168 197.71 97.6101 198.24 97.6101Z" fill="#1C1C49"/>
<path d="M201.3 83.96H200.78V59.32H207.63V77.63C207.63 81.12 204.79 83.96 201.3 83.96Z" fill="#0D0D26"/>
<path d="M204.06 69.7H205.41C207.4 69.7 209.02 71.31 209.02 73.31V75.03C209.02 77.02 207.41 78.64 205.41 78.64H204.06V69.7Z" fill="#F1797A"/>
<path d="M179.32 59.3301H186.17V83.9701H185.65C182.16 83.9701 179.32 81.1301 179.32 77.6401V59.3301Z" fill="#161535"/>
<path d="M193.89 52.47C186.82 52.47 181.12 58.24 181.12 65.3L181.09 79.81C181.09 86.88 186.82 92.61 193.89 92.61H201.84C204.51 92.61 206.68 90.44 206.68 87.77V58.02C206.68 50.95 200.95 52.46 193.88 52.46L193.89 52.47Z" fill="#F69996"/>
<path d="M200.87 72.52C200.87 73.23 201.44 73.8 202.15 73.8C202.86 73.8 203.43 73.23 203.43 72.52C203.43 71.81 202.86 71.24 202.15 71.24C201.44 71.24 200.87 71.81 200.87 72.52Z" fill="#161535"/>
<path d="M190.8 72.52C190.8 73.23 191.37 73.8 192.08 73.8C192.79 73.8 193.36 73.23 193.36 72.52C193.36 71.81 192.79 71.24 192.08 71.24C191.37 71.24 190.8 71.81 190.8 72.52Z" fill="#161535"/>
<path d="M194.52 65.8399H189.74C189.41 65.8399 189.14 65.5699 189.14 65.2399C189.14 64.9099 189.41 64.6399 189.74 64.6399H194.52C194.85 64.6399 195.12 64.9099 195.12 65.2399C195.12 65.5699 194.85 65.8399 194.52 65.8399Z" fill="#161535"/>
<path d="M204.47 68.18H199.69C199.36 68.18 199.09 67.91 199.09 67.58C199.09 67.25 199.36 66.98 199.69 66.98H204.47C204.8 66.98 205.07 67.25 205.07 67.58C205.07 67.91 204.8 68.18 204.47 68.18Z" fill="#161535"/>
<path d="M189.94 77.9299C190.58 80.3099 193.52 82.6699 197.06 82.6699C200.6 82.6699 203.54 80.3199 204.18 77.9299H189.95H189.94Z" fill="#EFF4DF"/>
<path d="M197.68 77.0201C197.38 77.0201 197.16 76.9901 197.1 76.9801C196.93 76.9601 196.81 76.7901 196.83 76.6201C196.85 76.4501 197.02 76.3301 197.19 76.3501C197.53 76.4001 198.49 76.4401 198.93 76.0501C199.09 75.9101 199.16 75.7301 199.16 75.4901C199.16 73.7001 197.51 72.7801 197.49 72.7701C197.34 72.6901 197.28 72.4901 197.36 72.3401C197.44 72.1901 197.63 72.1301 197.79 72.2101C197.87 72.2501 199.79 73.3201 199.79 75.4901C199.79 75.9101 199.63 76.2701 199.34 76.5301C198.88 76.9301 198.18 77.0101 197.68 77.0101V77.0201Z" fill="#F1797A"/>
<path d="M181.6 69.7H180.25C178.26 69.7 176.64 71.31 176.64 73.31V75.03C176.64 77.02 178.25 78.64 180.25 78.64H181.6V69.7Z" fill="#F69996"/>
<path d="M187.56 51.1699C183.07 51.1699 179.4 54.8399 179.4 59.3299C179.4 60.2999 180.11 61.0999 181.03 61.2599V70.5499C181.03 71.6299 181.91 72.5099 182.99 72.5099C184.07 72.5099 184.95 71.6299 184.95 70.5499V59.6699L187.56 51.1699Z" fill="#161535"/>
<path d="M186.48 51.1699H197.81V55.8599C197.81 60.2599 194.24 63.8299 189.84 63.8299H179.31V58.3299C179.31 54.3699 182.52 51.1599 186.48 51.1599V51.1699Z" fill="#161535"/>
<path d="M200.82 51.1699H197.49V55.8599C197.49 60.2599 201.06 63.8299 205.46 63.8299H207.65V57.9999C207.65 54.2299 204.59 51.1699 200.82 51.1699Z" fill="#161535"/>
<path d="M190.85 108.01L180.99 97.3601L185.66 92.8601L193.76 100.2L190.85 108.01Z" fill="#CBD1C9"/>
<path d="M197.21 108.01L193.76 100.29L195.71 94.0901L198.16 97.3501L197.21 108.01Z" fill="#CBD1C9"/>
<path d="M197.17 145.42C197.17 146.2 196.54 146.84 195.75 146.84C194.96 146.84 194.33 146.21 194.33 145.42C194.33 144.63 194.96 144 195.75 144C196.54 144 197.17 144.63 197.17 145.42Z" fill="#0D0D26"/>
<path d="M182.02 96.3999C180.18 97.5499 179 99.4899 178.82 101.65L178.64 103.83L181.14 105.28L179.37 108.77L197.14 138.67L182.01 96.3999H182.02Z" fill="#161535"/>
<path d="M201.15 105.59L202.75 103.42L202.04 101.41C201.34 99.42 199.9 97.95 198.15 97.45L196.97 140.87L203.45 108.34L201.15 105.59Z" fill="#0D0D26"/>
<path d="M206.62 151.24C202.98 151.24 199.28 151.07 195.73 150.72C193.86 150.54 192.5 148.87 192.68 147.01C192.86 145.14 194.52 143.78 196.39 143.96C203.62 144.67 211.5 144.61 218 143.79C219.85 143.56 221.56 144.87 221.79 146.73C222.02 148.59 220.71 150.29 218.84 150.53C215.07 151.01 210.88 151.24 206.61 151.24H206.62Z" fill="#F1797A"/>
<path d="M171 117.23C170.58 117.23 170.16 117.17 169.74 117.04C167.45 116.35 166.16 113.93 166.85 111.64L168.72 105.48C169.41 103.19 171.83 101.89 174.12 102.59C176.41 103.28 177.7 105.7 177.01 107.99L175.14 114.15C174.57 116.02 172.85 117.23 170.99 117.23H171Z" fill="#161535"/>
<path d="M206.96 151.17C205.98 151.17 205.01 151.15 204.04 151.12L204.29 144.46C206.66 144.55 209.06 144.52 211.42 144.37L211.84 151.02C210.23 151.12 208.6 151.17 206.97 151.17H206.96Z" fill="white"/>
<path d="M205.08 152.5C195.81 152.5 179.27 151.55 170.72 140.22C164.82 132.4 163.96 121.3 168.17 107.21L176.47 109.69C173.09 120.99 173.49 129.5 177.63 135C184.5 144.1 200.82 143.9 207.79 143.81C208.39 143.81 208.94 143.8 209.42 143.79L209.44 152.46C208.99 152.46 208.47 152.46 207.9 152.47C207.06 152.48 206.11 152.49 205.07 152.49L205.08 152.5Z" fill="#161535"/>
<path d="M269.51 155.25H213.46L220.1 118.12C220.43 116.27 222.04 114.93 223.91 114.93H276.72L269.51 155.25Z" fill="#CBD1C9"/>
<path d="M239.35 150.99H183.3C183.3 153.34 185.21 155.25 187.56 155.25H239.35V150.99Z" fill="#CBD1C9"/>
<path d="M269.01 155.25H216.73L223.94 114.93H277.41C278.75 114.93 279.77 116.15 279.53 117.47L273.44 151.54C273.06 153.69 271.19 155.25 269.01 155.25Z" fill="#F3E8E8"/>
<path d="M254.4 134.86C253.86 137.48 251.35 139.61 248.8 139.61C246.25 139.61 244.56 137.48 245.03 134.86C245.5 132.24 248.01 130.11 250.63 130.11C253.25 130.11 254.94 132.24 254.4 134.86Z" fill="#CBD1C9"/>
<path d="M245.4 158.65C245.19 158.65 244.98 158.63 244.76 158.59C242.92 158.24 241.71 156.46 242.06 154.62L242.73 151.12C243.08 149.28 244.86 148.07 246.7 148.42C248.54 148.77 249.75 150.55 249.4 152.39L248.73 155.89C248.42 157.52 247 158.65 245.4 158.65Z" fill="#F1797A"/>
<path d="M94.6732 143.441C111.532 126.582 111.532 99.2487 94.6732 82.3897C77.8143 65.5308 50.4806 65.5308 33.6216 82.3897C16.7627 99.2487 16.7627 126.582 33.6216 143.441C50.4806 160.3 77.8143 160.3 94.6732 143.441Z" fill="#FBC000"/>
<path d="M64.15 150C43.7 150 27.07 133.36 27.07 112.92C27.07 92.4801 43.71 75.8401 64.15 75.8401C84.59 75.8401 101.23 92.4801 101.23 112.92C101.23 133.36 84.59 150 64.15 150ZM64.15 81.5001C46.83 81.5001 32.73 95.5901 32.73 112.92C32.73 130.25 46.82 144.34 64.15 144.34C81.48 144.34 95.57 130.25 95.57 112.92C95.57 95.5901 81.48 81.5001 64.15 81.5001Z" fill="#FFDF67"/>
<path d="M59.48 84.8301H55.48V97.3301H59.48V84.8301Z" fill="#FFDF67"/>
<path d="M71.15 84.8301H67.15V97.3301H71.15V84.8301Z" fill="#FFDF67"/>
<path d="M59.48 127.83H55.48V140.33H59.48V127.83Z" fill="#FFDF67"/>
<path d="M71.15 127.83H67.15V140.33H71.15V127.83Z" fill="#FFDF67"/>
<path d="M24.08 200.24C23.76 200.24 23.44 200.12 23.2 199.87C22.71 199.38 22.71 198.59 23.2 198.1L121.63 99.67C122.12 99.18 122.91 99.18 123.4 99.67C123.89 100.16 123.89 100.95 123.4 101.44L24.97 199.87C24.73 200.11 24.41 200.24 24.09 200.24H24.08Z" fill="#673C78"/>
<path d="M64.08 183.24C63.76 183.24 63.44 183.12 63.2 182.87C62.71 182.38 62.71 181.59 63.2 181.1L104.35 140.03C104.84 139.54 105.63 139.54 106.12 140.03C106.61 140.52 106.61 141.31 106.12 141.8L64.97 182.87C64.73 183.11 64.41 183.24 64.09 183.24H64.08Z" fill="#673C78"/>
<path d="M326.75 214.57C326.43 214.57 326.11 214.45 325.87 214.2C325.38 213.71 325.38 212.92 325.87 212.43L406.15 132.15C406.64 131.66 407.43 131.66 407.92 132.15C408.41 132.64 408.41 133.43 407.92 133.92L327.64 214.2C327.4 214.44 327.08 214.57 326.76 214.57H326.75Z" fill="#673C78"/>
<path d="M312.94 111.04C312.62 111.04 312.3 110.92 312.05 110.67C311.56 110.18 311.56 109.39 312.05 108.9L336.51 84.5201C337 84.0301 337.79 84.0301 338.28 84.5201C338.77 85.0101 338.77 85.8001 338.28 86.2901L313.82 110.67C313.58 110.91 313.26 111.03 312.94 111.03V111.04Z" fill="#673C78"/>
</g>
<defs>
<clipPath id="clip0_429_30143">
<rect width="411.38" height="312.81" fill="white"/>
</clipPath>
</defs>
</svg>
